#Comment line ignore any data following # character 
#Hierarchical Translation and Rotation (.htr) file 
[Header]	
#Header keywords are followed by a single value 
FileType HTR		#Single word string
DataType HTRS		#Translation followed by rotation and scale data
FileVersion 1		#integer
NumSegments 64		#integer
NumFrames 2		#integer
DataFrameRate 30		#integer, data frame rate in this file
EulerRotationOrder ZYX
CalibrationUnits mm
RotationUnits Degrees
GlobalAxisofGravity Y
BoneLengthAxis Y
ScaleFactor 1.00
[SegmentNames&Hierarchy]
#CHILD	PARENT
Pinger_Root GLOBAL
Pelvis Pinger_Root
L_Hip Pelvis
R_Hip Pelvis
Rear_Leg01 Pelvis
Spine1 Pelvis
L_Leg01 L_Hip
L_Leg02 L_Leg01
L_Leg03 L_Leg02
L_Foot L_Leg03
L_Toe1_01 L_Foot
L_Toe2_01 L_Foot
L_Toe3_01 L_Foot
planeAlignerLeft L_Foot
L_Toe1_02 L_Toe1_01
L_Toe1_03 L_Toe1_02
L_Toe2_02 L_Toe2_01
L_Toe2_03 L_Toe2_02
L_Toe3_02 L_Toe3_01
L_Toe3_03 L_Toe3_02
planeLockWeightLeft planeAlignerLeft
R_Leg01 R_Hip
R_Leg02 R_Leg01
R_Leg03 R_Leg02
R_Foot R_Leg03
planeAlignerRight R_Foot
R_Toe1_01 R_Foot
R_Toe2_01 R_Foot
R_Toe3_01 R_Foot
planeLockWeightRight planeAlignerRight
R_Toe1_02 R_Toe1_01
R_Toe1_03 R_Toe1_02
R_Toe2_02 R_Toe2_01
R_Toe2_03 R_Toe2_02
R_Toe3_02 R_Toe3_01
R_Toe3_03 R_Toe3_02
Rear_Leg02 Rear_Leg01
Rear_Leg03 Rear_Leg02
Rear_Leg04 Rear_Leg03
Rear_Foot Rear_Leg04
planeAlignerCenter Rear_Foot
Rear_Toe1_01 Rear_Foot
Rear_Toe2_01 Rear_Foot
Rear_Toe3_01 Rear_Foot
planeLockWeightCenter planeAlignerCenter
Rear_Toe1_02 Rear_Toe1_01
Rear_Toe1_03 Rear_Toe1_02
Rear_Toe2_02 Rear_Toe2_01
Rear_Toe2_03 Rear_Toe2_02
Rear_Toe3_02 Rear_Toe3_01
Rear_Toe3_03 Rear_Toe3_02
Back_Bone Spine1
Head Spine1
Motor_Bone Back_Bone
Ping_Mechanism Back_Bone
BN_LookIK Head
bottomMouth Head
L_Mouth01 Head
L_mouthFront Head
mouthGun Head
R_Mouth01 Head
R_mouthFront Head
TopMouth Head
weapon_bone Head
[BasePosition]
#SegmentName Tx, Ty, Tz, Rx, Ry, Rz, BoneLength
Pinger_Root 0.000000 0.000000 0.000000 -90.000000 0.000000 0.000000 10.000000 
Pelvis 0.000000 0.000000 0.000000 0.000000 0.000000 0.000000 10.000000 
L_Hip 0.000000 0.000000 0.000000 0.000000 0.000000 0.000000 10.000000 
R_Hip 0.000000 0.000000 0.000000 0.000000 0.000000 0.000000 10.000000 
Rear_Leg01 0.000000 0.000000 0.000000 0.000000 0.000000 0.000000 10.000000 
Spine1 0.000000 0.000000 0.000000 0.000000 0.000000 0.000000 10.000000 
L_Leg01 0.000000 0.000000 0.000000 0.000000 0.000000 0.000000 10.000000 
L_Leg02 0.000000 0.000000 0.000000 0.000000 0.000000 0.000000 10.000000 
L_Leg03 0.000000 0.000000 0.000000 0.000000 0.000000 0.000000 10.000000 
L_Foot 0.000000 0.000000 0.000000 0.000000 0.000000 0.000000 10.000000 
L_Toe1_01 0.000000 0.000000 0.000000 0.000000 0.000000 0.000000 10.000000 
L_Toe2_01 0.000000 0.000000 0.000000 0.000000 0.000000 0.000000 10.000000 
L_Toe3_01 0.000000 0.000000 0.000000 0.000000 0.000000 0.000000 10.000000 
planeAlignerLeft 0.000000 0.000000 0.000000 0.000000 0.000000 0.000000 10.000000 
L_Toe1_02 0.000000 0.000000 0.000000 0.000000 0.000000 0.000000 10.000000 
L_Toe1_03 0.000000 0.000000 0.000000 0.000000 0.000000 0.000000 10.000000 
L_Toe2_02 0.000000 0.000000 0.000000 0.000000 0.000000 0.000000 10.000000 
L_Toe2_03 0.000000 0.000000 0.000000 0.000000 0.000000 0.000000 10.000000 
L_Toe3_02 0.000000 0.000000 0.000000 0.000000 0.000000 0.000000 10.000000 
L_Toe3_03 0.000000 0.000000 0.000000 0.000000 0.000000 0.000000 10.000000 
planeLockWeightLeft 0.000000 0.000000 0.000000 0.000000 0.000000 0.000000 10.000000 
R_Leg01 0.000000 0.000000 0.000000 0.000000 0.000000 0.000000 10.000000 
R_Leg02 0.000000 0.000000 0.000000 0.000000 0.000000 0.000000 10.000000 
R_Leg03 0.000000 0.000000 0.000000 0.000000 0.000000 0.000000 10.000000 
R_Foot 0.000000 0.000000 0.000000 0.000000 0.000000 0.000000 10.000000 
planeAlignerRight 0.000000 0.000000 0.000000 0.000000 0.000000 0.000000 10.000000 
R_Toe1_01 0.000000 0.000000 0.000000 0.000000 0.000000 0.000000 10.000000 
R_Toe2_01 0.000000 0.000000 0.000000 0.000000 0.000000 0.000000 10.000000 
R_Toe3_01 0.000000 0.000000 0.000000 0.000000 0.000000 0.000000 10.000000 
planeLockWeightRight 0.000000 0.000000 0.000000 0.000000 0.000000 0.000000 10.000000 
R_Toe1_02 0.000000 0.000000 0.000000 0.000000 0.000000 0.000000 10.000000 
R_Toe1_03 0.000000 0.000000 0.000000 0.000000 0.000000 0.000000 10.000000 
R_Toe2_02 0.000000 0.000000 0.000000 0.000000 0.000000 0.000000 10.000000 
R_Toe2_03 0.000000 0.000000 0.000000 0.000000 0.000000 0.000000 10.000000 
R_Toe3_02 0.000000 0.000000 0.000000 0.000000 0.000000 0.000000 10.000000 
R_Toe3_03 0.000000 0.000000 0.000000 0.000000 0.000000 0.000000 10.000000 
Rear_Leg02 0.000000 0.000000 0.000000 0.000000 0.000000 0.000000 10.000000 
Rear_Leg03 0.000000 0.000000 0.000000 0.000000 0.000000 0.000000 10.000000 
Rear_Leg04 0.000000 0.000000 0.000000 0.000000 0.000000 0.000000 10.000000 
Rear_Foot 0.000000 0.000000 0.000000 0.000000 0.000000 0.000000 10.000000 
planeAlignerCenter 0.000000 0.000000 0.000000 0.000000 0.000000 0.000000 10.000000 
Rear_Toe1_01 0.000000 0.000000 0.000000 0.000000 0.000000 0.000000 10.000000 
Rear_Toe2_01 0.000000 0.000000 0.000000 0.000000 0.000000 0.000000 10.000000 
Rear_Toe3_01 0.000000 0.000000 0.000000 0.000000 0.000000 0.000000 10.000000 
planeLockWeightCenter 0.000000 0.000000 0.000000 0.000000 0.000000 0.000000 10.000000 
Rear_Toe1_02 0.000000 0.000000 0.000000 0.000000 0.000000 0.000000 10.000000 
Rear_Toe1_03 0.000000 0.000000 0.000000 0.000000 0.000000 0.000000 10.000000 
Rear_Toe2_02 0.000000 0.000000 0.000000 0.000000 0.000000 0.000000 10.000000 
Rear_Toe2_03 0.000000 0.000000 0.000000 0.000000 0.000000 0.000000 10.000000 
Rear_Toe3_02 0.000000 0.000000 0.000000 0.000000 0.000000 0.000000 10.000000 
Rear_Toe3_03 0.000000 0.000000 0.000000 0.000000 0.000000 0.000000 10.000000 
Back_Bone 0.000000 0.000000 0.000000 0.000000 0.000000 0.000000 10.000000 
Head 0.000000 0.000000 0.000000 0.000000 0.000000 0.000000 10.000000 
Motor_Bone 0.000000 0.000000 0.000000 0.000000 0.000000 0.000000 10.000000 
Ping_Mechanism 0.000000 0.000000 0.000000 0.000000 0.000000 0.000000 10.000000 
BN_LookIK 0.000000 0.000000 0.000000 0.000000 0.000000 0.000000 10.000000 
bottomMouth 0.000000 0.000000 0.000000 0.000000 0.000000 0.000000 10.000000 
L_Mouth01 0.000000 0.000000 0.000000 0.000000 0.000000 0.000000 10.000000 
L_mouthFront 0.000000 0.000000 0.000000 0.000000 0.000000 0.000000 10.000000 
mouthGun 0.000000 0.000000 0.000000 0.000000 0.000000 0.000000 10.000000 
R_Mouth01 0.000000 0.000000 0.000000 0.000000 0.000000 0.000000 10.000000 
R_mouthFront 0.000000 0.000000 0.000000 0.000000 0.000000 0.000000 10.000000 
TopMouth 0.000000 0.000000 0.000000 0.000000 0.000000 0.000000 10.000000 
weapon_bone 0.000000 0.000000 0.000000 0.000000 0.000000 0.000000 10.000000 
#Beginning of Data. Separated by tabs
#Fr	Tx	Ty	Tz	Rx	Ry	Rz	SF
[Pinger_Root]
17 0.000000 0.000000 0.000000 -0.000075 -0.000000 -0.000020 0.000000
18 0.000000 0.000000 0.000000 -0.000075 -0.000000 -0.000020 0.000000
[Pelvis]
17 254.197174 114.708740 4867.715332 -137.981766 -72.480560 84.128120 4875.697266
18 335.367004 -3.452703 4913.361328 -131.014420 -73.950294 76.517258 4924.794434
[L_Hip]
17 5.766392 125.831482 872.656799 171.696472 -78.221367 98.224052 881.701050
18 5.766392 125.831482 872.656799 174.998581 -79.737663 94.575897 881.701050
[R_Hip]
17 5.765438 125.836372 -872.654907 14.261604 79.013626 102.727882 881.699829
18 5.765438 125.836372 -872.654907 8.398508 80.324722 97.134720 881.699829
[Rear_Leg01]
17 -192.298416 -925.602966 -0.001907 -178.855301 -11.334090 -150.476563 945.367432
18 -192.298416 -925.602966 -0.001907 -179.083496 -10.494939 -148.852707 945.367432
[Spine1]
17 290.604584 5.007505 0.000477 43.908005 -6.792477 8.987331 290.647736
18 290.604584 5.007505 0.000477 43.692207 -9.549015 8.733385 290.647736
[L_Leg01]
17 761.932007 -0.002384 -0.069261 61.477974 -65.486389 -33.993206 761.932068
18 761.932007 -0.002384 -0.069261 60.485760 -61.125343 -42.231216 761.932068
[L_Leg02]
17 1441.140503 -0.000954 -0.000715 3.197059 -0.608426 -144.897034 1441.140503
18 1441.140503 -0.000954 -0.000715 1.596246 -0.313848 -131.513794 1441.140503
[L_Leg03]
17 1686.963989 -0.000715 -0.000954 0.000283 -0.001826 110.225441 1686.963989
18 1686.963989 -0.000715 -0.000954 0.005195 -0.004403 108.772339 1686.963989
[L_Foot]
17 3041.570068 -30.715107 11.297464 -9.790720 41.894390 54.149117 3041.746094
18 3041.570068 -30.715107 11.297464 -9.899071 32.992737 50.410183 3041.746094
[L_Toe1_01]
17 -188.216690 -224.732346 -21.137953 90.563805 -10.464145 -156.245163 293.899567
18 -188.216690 -224.732346 -21.137953 89.354210 -9.904286 -153.890305 293.899567
[L_Toe2_01]
17 200.746536 -219.926590 148.838394 -74.353806 -18.504108 -56.594250 332.896027
18 200.746536 -219.926590 148.838394 -73.194656 -17.708576 -56.612896 332.896027
[L_Toe3_01]
17 188.832520 -219.859131 -191.078659 -104.497856 3.937655 -56.307331 347.140900
18 188.832520 -219.859131 -191.078659 -104.485291 4.494255 -54.507313 347.140900
[planeAlignerLeft]
17 45.339085 -745.046875 165.649582 169.029251 -88.586395 99.827293 764.585022
18 14.547635 -749.885681 160.681320 0.000000 -89.965736 -90.001625 767.045410
[L_Toe1_02]
17 413.761139 0.000477 0.000000 0.001398 -24.128191 0.001398 413.761139
18 413.761139 0.000477 0.000000 0.001395 -24.578489 0.001395 413.761139
[L_Toe1_03]
17 464.317322 0.000358 -0.000089 0.007840 72.780434 0.007840 464.317322
18 464.317322 0.000358 -0.000089 0.006782 70.069855 0.006782 464.317322
[L_Toe2_02]
17 342.235809 -0.000477 0.000238 -0.008566 -64.680283 0.007388 342.235809
18 342.235809 -0.000477 0.000238 0.001195 -68.036758 0.001196 342.235809
[L_Toe2_03]
17 420.210846 -0.000715 0.000000 -0.001357 68.878204 -0.004914 420.210846
18 420.210846 -0.000715 0.000000 0.009198 75.339050 0.009198 420.210846
[L_Toe3_02]
17 329.270111 0.000954 0.000000 0.001181 -77.404961 0.001181 329.270111
18 329.270111 0.000954 0.000000 0.001179 -78.768272 0.001179 329.270111
[L_Toe3_03]
17 439.137451 -0.001907 0.000954 -179.937973 88.966370 -179.934479 439.137451
18 439.137451 -0.001907 0.000954 -179.989105 84.791542 -179.985611 439.137451
[planeLockWeightLeft]
17 499.999847 0.000000 -0.000119 -0.011826 -0.004376 0.005620 499.999847
18 999.999573 0.000000 0.000048 -0.011826 -0.004376 0.005620 999.999573
[R_Leg01]
17 761.455627 -0.001907 -0.000358 95.012863 -6.223078 97.063538 761.455688
18 761.455627 -0.001907 -0.000358 93.378853 -9.240754 97.328674 761.455688
[R_Leg02]
17 1441.140625 0.000000 -0.000238 0.125657 0.046850 -82.655479 1441.140625
18 1441.140625 0.000000 -0.000238 0.144129 0.020231 -86.603279 1441.140625
[R_Leg03]
17 1686.963989 0.000954 0.001431 -0.099950 0.011445 83.042480 1686.963989
18 1686.963989 0.000954 0.001431 -0.092822 0.012930 84.357101 1686.963989
[R_Foot]
17 3041.560059 -30.531288 -11.204481 2.255795 -21.007107 94.545616 3041.734131
18 3041.560059 -30.531288 -11.204481 0.404396 -20.917528 95.348083 3041.734131
[planeAlignerRight]
17 71.158531 -566.865723 28.117220 0.000000 -89.951546 -90.004936 572.005981
18 54.581867 -592.496216 20.533308 0.000000 -89.951546 -90.004936 595.359192
[R_Toe1_01]
17 -188.383347 -224.864899 21.052242 91.131119 0.800901 -171.253006 294.101532
18 -188.383347 -224.864899 21.052242 90.904022 1.134725 -168.868179 294.101532
[R_Toe2_01]
17 200.637817 -220.002121 -148.787384 -99.643944 10.679397 -41.134991 332.857574
18 200.637817 -220.002121 -148.787384 -100.633400 10.935453 -42.939480 332.857574
[R_Toe3_01]
17 188.606735 -220.092957 191.126343 -75.278198 -16.355745 -43.873329 347.192566
18 188.606735 -220.092957 191.126343 -74.699738 -15.847200 -45.449181 347.192566
[planeLockWeightRight]
17 999.999573 0.000257 -0.000205 -0.011823 -0.004379 -0.000027 999.999573
18 999.999512 0.000264 -0.000218 -0.011823 -0.004379 -0.000027 999.999512
[R_Toe1_02]
17 413.762085 0.000477 -0.000119 0.001445 -18.646626 0.001445 413.762085
18 413.762085 0.000477 -0.000119 0.001434 -19.908209 0.001434 413.762085
[R_Toe1_03]
17 464.317810 0.000000 0.001088 -179.988876 84.885223 -179.985382 464.317810
18 464.317810 0.000000 0.001088 -179.957108 88.524086 -179.953613 464.317810
[R_Toe2_02]
17 342.234741 -0.000954 0.000238 -0.002341 -75.837135 -0.002341 342.234741
18 342.234741 -0.000954 0.000238 -0.002341 -75.801109 -0.002341 342.234741
[R_Toe2_03]
17 420.210846 0.000715 -0.000268 -179.987610 83.801025 -179.991135 420.210846
18 420.210846 0.000715 -0.000268 -179.987839 83.671417 -179.991348 420.210846
[R_Toe3_02]
17 329.270355 -0.000477 -0.000954 0.001179 -79.076996 0.001179 329.270355
18 329.270355 -0.000477 -0.000954 0.001179 -79.219841 0.001179 329.270355
[R_Toe3_03]
17 439.137939 0.000238 0.001431 -179.991226 83.744484 -179.987717 439.137939
18 439.137939 0.000238 0.001431 -179.992310 83.021324 -179.988800 439.137939
[Rear_Leg02]
17 1162.777710 -0.029802 0.005960 10.075224 -17.698372 -88.764778 1162.777710
18 1162.777710 -0.029802 0.005960 11.064116 -21.754795 -83.116463 1162.777710
[Rear_Leg03]
17 607.192505 -0.013351 -0.073195 0.010376 -0.005338 70.802376 607.192505
18 607.192505 -0.013351 -0.073195 0.010430 -0.005233 69.648636 607.192505
[Rear_Leg04]
17 995.874512 -0.020504 -0.011921 -0.040986 -0.017004 72.295876 995.874573
18 995.874512 -0.020504 -0.011921 -0.040637 -0.017823 69.997406 995.874573
[Rear_Foot]
17 3096.176270 -0.067472 -0.041425 -72.731895 68.709190 80.352165 3096.176270
18 3096.176270 -0.067472 -0.041425 -77.974899 65.187149 74.167801 3096.176270
[planeAlignerCenter]
17 -1.041111 -29.029705 -767.832947 12.240772 -0.001473 179.998184 768.382202
18 0.399358 -14.986752 -777.260437 12.240772 -0.001473 179.998184 777.405029
[Rear_Toe1_01]
17 0.653352 83.966492 -371.173737 0.349548 40.979046 90.509102 380.553192
18 0.653352 83.966492 -371.173737 0.291862 41.917866 90.413193 380.553192
[Rear_Toe2_01]
17 178.200760 -294.826019 -362.060547 -2.914672 33.828224 -65.039085 499.765686
18 178.200760 -294.826019 -362.060547 -2.489774 34.534657 -64.476860 499.765686
[Rear_Toe3_01]
17 -153.359680 -308.780914 -362.060852 3.899429 32.712349 -112.094177 499.952881
18 -153.359680 -308.780914 -362.060852 3.838581 33.508648 -112.330376 499.952881
[planeLockWeightCenter]
17 1000.000122 0.000454 -0.000084 -0.011814 -0.004373 -0.000015 1000.000122
18 1000.000122 0.000441 -0.000072 -0.011814 -0.004373 -0.000015 1000.000122
[Rear_Toe1_02]
17 379.707825 0.194073 0.000477 -0.000295 -32.402935 0.006964 379.707855
18 379.707825 0.194073 0.000477 -0.000242 -31.676744 0.006934 379.707855
[Rear_Toe1_03]
17 500.129700 0.165701 0.000119 0.000444 56.682648 0.007744 500.129761
18 500.129700 0.165701 0.000119 -0.000104 51.891487 0.007294 500.129761
[Rear_Toe2_02]
17 340.494507 0.000238 -0.000954 0.001195 -68.514786 0.001195 340.494507
18 340.494507 0.000238 -0.000954 0.001192 -69.854523 0.001192 340.494507
[Rear_Toe2_03]
17 433.103577 0.000000 0.000238 0.006098 67.808212 0.006098 433.103546
18 433.103577 0.000000 0.000238 0.006694 69.804276 0.006694 433.103546
[Rear_Toe3_02]
17 340.494141 -0.000358 -0.000477 0.007674 -65.566360 -0.008850 340.494171
18 340.494141 -0.000358 -0.000477 0.008288 -67.274704 -0.009460 340.494171
[Rear_Toe3_03]
17 433.103577 0.001431 -0.000238 -0.000733 63.716991 -0.004324 433.103546
18 433.103577 0.001431 -0.000238 -0.000971 65.953087 -0.004547 433.103546
[Back_Bone]
17 1312.175781 -701.934692 0.000954 -1.868886 1.153182 -84.487404 1488.125488
18 1312.175781 -701.934692 0.000954 -2.134085 1.239973 -84.407181 1488.125488
[Head]
17 1406.159424 809.709290 0.001431 6.035846 -2.986216 4.120689 1622.625488
18 1406.159424 809.709290 0.001431 6.211481 -3.030984 3.824076 1622.625488
[Motor_Bone]
17 1158.364380 -417.834747 0.000477 -1.885591 0.117789 -105.868080 1231.419434
18 1158.364380 -417.834747 0.000477 -2.086182 0.121302 -105.863945 1231.419434
[Ping_Mechanism]
17 1294.900757 -469.824188 -4.409090 0.000103 -0.000053 82.120995 1377.505859
18 1286.282227 -467.688751 7.065380 0.000103 -0.000053 82.120995 1368.687134
[BN_LookIK]
17 193.241119 1380.371704 -0.002861 0.000000 89.965736 -31.038179 1393.832153
18 193.241119 1380.371704 -0.002861 0.000000 89.965736 -31.038179 1393.832153
[bottomMouth]
17 -435.092926 615.759399 -0.000954 -0.000022 0.000016 73.527184 753.966492
18 -435.092926 615.759399 -0.000954 -0.000022 0.000016 73.527184 753.966492
[L_Mouth01]
17 554.440979 7.658243 838.222046 150.204178 23.759130 109.605339 1005.027161
18 554.440979 7.658243 838.222046 150.204178 23.759130 109.605339 1005.027161
[L_mouthFront]
17 551.629089 934.514771 339.150421 0.000081 2.804060 79.119301 1136.941284
18 551.629089 934.514771 339.150421 0.000081 2.804060 79.119301 1136.941284
[mouthGun]
17 55.332661 1627.420898 0.000000 0.000023 0.000009 -11.038128 1628.361328
18 55.332661 1627.420898 0.000000 0.000023 0.000009 -11.038128 1628.361328
[R_Mouth01]
17 554.442383 7.659197 -838.223938 29.795891 -23.759109 109.605331 1005.029541
18 554.442383 7.659197 -838.223938 29.795891 -23.759109 109.605331 1005.029541
[R_mouthFront]
17 551.629089 934.514282 -339.151367 0.000029 -2.803930 79.119133 1136.941162
18 551.629089 934.514282 -339.151367 0.000029 -2.803930 79.119133 1136.941162
[TopMouth]
17 461.269867 -56.106091 -0.008583 -0.000059 -0.000268 92.025169 464.669525
18 461.269867 -56.106091 -0.008583 -0.000059 -0.000268 92.025169 464.669525
[weapon_bone]
17 -987.239868 1448.372803 0.001431 0.000000 89.965736 -31.038221 1752.833740
18 -987.239868 1448.372803 0.001431 0.000000 89.965736 -31.038221 1752.833740
